<mxfile host="app.diagrams.net" modified="2024-06-22T08:25:57.203Z" agent="Mozilla/5.0 (Windows NT 10.0; Win64; x64) AppleWebKit/537.36 (KHTML, like Gecko) Chrome/123.0.0.0 Safari/537.36 OPR/109.0.0.0" etag="iTgAMsiFsxFXgf2z4SZ0" version="24.6.1" type="device">
  <diagram name="Сторінка-1" id="QPpfyPxlDEL5Ec9uEA-j">
    <mxGraphModel dx="1639" dy="938" grid="0" gridSize="10" guides="1" tooltips="1" connect="1" arrows="1" fold="1" page="1" pageScale="1" pageWidth="827" pageHeight="1169" math="0" shadow="0">
      <root>
        <mxCell id="0" />
        <mxCell id="1" parent="0" />
        <mxCell id="Z0NSURGrnw13pnlhkE_a-1" value="Користувач" style="shape=umlActor;verticalLabelPosition=bottom;verticalAlign=top;html=1;outlineConnect=0;" parent="1" vertex="1">
          <mxGeometry x="30" y="19" width="30" height="60" as="geometry" />
        </mxCell>
        <mxCell id="Z0NSURGrnw13pnlhkE_a-2" value="" style="endArrow=none;dashed=1;html=1;rounded=0;" parent="1" edge="1">
          <mxGeometry width="50" height="50" relative="1" as="geometry">
            <mxPoint x="50" y="1179" as="sourcePoint" />
            <mxPoint x="50" y="109" as="targetPoint" />
          </mxGeometry>
        </mxCell>
        <mxCell id="Z0NSURGrnw13pnlhkE_a-3" value="Система(інтерфейс)" style="rounded=0;whiteSpace=wrap;html=1;" parent="1" vertex="1">
          <mxGeometry x="160" y="19" width="120" height="60" as="geometry" />
        </mxCell>
        <mxCell id="Z0NSURGrnw13pnlhkE_a-4" value="" style="endArrow=none;dashed=1;html=1;rounded=0;" parent="1" edge="1">
          <mxGeometry width="50" height="50" relative="1" as="geometry">
            <mxPoint x="220" y="1189" as="sourcePoint" />
            <mxPoint x="219.5" y="79" as="targetPoint" />
          </mxGeometry>
        </mxCell>
        <mxCell id="Z0NSURGrnw13pnlhkE_a-5" value="" style="endArrow=classic;html=1;rounded=0;" parent="1" edge="1">
          <mxGeometry width="50" height="50" relative="1" as="geometry">
            <mxPoint x="49" y="169" as="sourcePoint" />
            <mxPoint x="220" y="169" as="targetPoint" />
          </mxGeometry>
        </mxCell>
        <mxCell id="Z0NSURGrnw13pnlhkE_a-6" value="База даних" style="rounded=0;whiteSpace=wrap;html=1;" parent="1" vertex="1">
          <mxGeometry x="320" y="19" width="120" height="60" as="geometry" />
        </mxCell>
        <mxCell id="Z0NSURGrnw13pnlhkE_a-7" value="" style="endArrow=none;dashed=1;html=1;rounded=0;entryX=0.528;entryY=1.01;entryDx=0;entryDy=0;entryPerimeter=0;" parent="1" edge="1">
          <mxGeometry width="50" height="50" relative="1" as="geometry">
            <mxPoint x="380" y="1189" as="sourcePoint" />
            <mxPoint x="379.83000000000004" y="79.00000000000003" as="targetPoint" />
          </mxGeometry>
        </mxCell>
        <mxCell id="Z0NSURGrnw13pnlhkE_a-8" value="Вхід в систему" style="text;html=1;align=center;verticalAlign=middle;resizable=0;points=[];autosize=1;strokeColor=none;fillColor=none;" parent="1" vertex="1">
          <mxGeometry x="75" y="141" width="100" height="26" as="geometry" />
        </mxCell>
        <mxCell id="Z0NSURGrnw13pnlhkE_a-9" value="" style="endArrow=classic;html=1;rounded=0;" parent="1" edge="1">
          <mxGeometry width="50" height="50" relative="1" as="geometry">
            <mxPoint x="221" y="379" as="sourcePoint" />
            <mxPoint x="381" y="379" as="targetPoint" />
          </mxGeometry>
        </mxCell>
        <mxCell id="Z0NSURGrnw13pnlhkE_a-10" value="Відображення форми&amp;nbsp;&lt;div&gt;створення картки&lt;/div&gt;" style="text;html=1;align=center;verticalAlign=middle;resizable=0;points=[];autosize=1;strokeColor=none;fillColor=none;" parent="1" vertex="1">
          <mxGeometry x="228.5" y="339" width="142" height="41" as="geometry" />
        </mxCell>
        <mxCell id="Z0NSURGrnw13pnlhkE_a-11" value="" style="endArrow=classic;html=1;rounded=0;" parent="1" edge="1">
          <mxGeometry width="50" height="50" relative="1" as="geometry">
            <mxPoint x="380" y="279" as="sourcePoint" />
            <mxPoint x="219" y="279" as="targetPoint" />
          </mxGeometry>
        </mxCell>
        <mxCell id="Z0NSURGrnw13pnlhkE_a-13" value="Перевірка облікового запису" style="text;whiteSpace=wrap;html=1;align=center;" parent="1" vertex="1">
          <mxGeometry x="232.75" y="185" width="139" height="40" as="geometry" />
        </mxCell>
        <mxCell id="Z0NSURGrnw13pnlhkE_a-16" value="" style="endArrow=classic;html=1;rounded=0;" parent="1" edge="1">
          <mxGeometry width="50" height="50" relative="1" as="geometry">
            <mxPoint x="220.75" y="634" as="sourcePoint" />
            <mxPoint x="379.75" y="634" as="targetPoint" />
          </mxGeometry>
        </mxCell>
        <mxCell id="Z0NSURGrnw13pnlhkE_a-17" value="" style="endArrow=classic;html=1;rounded=0;" parent="1" edge="1">
          <mxGeometry width="50" height="50" relative="1" as="geometry">
            <mxPoint x="220" y="229" as="sourcePoint" />
            <mxPoint x="380" y="229" as="targetPoint" />
          </mxGeometry>
        </mxCell>
        <mxCell id="Z0NSURGrnw13pnlhkE_a-18" value="Підтвердження входу" style="text;whiteSpace=wrap;html=1;align=center;" parent="1" vertex="1">
          <mxGeometry x="223" y="249" width="153" height="30" as="geometry" />
        </mxCell>
        <mxCell id="Z0NSURGrnw13pnlhkE_a-19" value="Перехід на сторінку створення картки" style="text;whiteSpace=wrap;html=1;align=center;" parent="1" vertex="1">
          <mxGeometry x="54.5" y="289" width="140" height="40" as="geometry" />
        </mxCell>
        <mxCell id="Z0NSURGrnw13pnlhkE_a-20" value="" style="endArrow=classic;html=1;rounded=0;" parent="1" edge="1">
          <mxGeometry width="50" height="50" relative="1" as="geometry">
            <mxPoint x="50" y="329" as="sourcePoint" />
            <mxPoint x="219.5" y="329" as="targetPoint" />
          </mxGeometry>
        </mxCell>
        <mxCell id="Z0NSURGrnw13pnlhkE_a-22" value="" style="endArrow=classic;html=1;rounded=0;" parent="1" edge="1">
          <mxGeometry width="50" height="50" relative="1" as="geometry">
            <mxPoint x="48" y="439" as="sourcePoint" />
            <mxPoint x="219" y="439" as="targetPoint" />
          </mxGeometry>
        </mxCell>
        <mxCell id="Z0NSURGrnw13pnlhkE_a-23" value="Завантаження фото&lt;div&gt;зниклого&lt;/div&gt;" style="text;whiteSpace=wrap;html=1;align=center;" parent="1" vertex="1">
          <mxGeometry x="56.75" y="451" width="150" height="40" as="geometry" />
        </mxCell>
        <mxCell id="Z0NSURGrnw13pnlhkE_a-24" value="" style="endArrow=classic;html=1;rounded=0;" parent="1" edge="1">
          <mxGeometry width="50" height="50" relative="1" as="geometry">
            <mxPoint x="49.5" y="489" as="sourcePoint" />
            <mxPoint x="220" y="489" as="targetPoint" />
          </mxGeometry>
        </mxCell>
        <mxCell id="Z0NSURGrnw13pnlhkE_a-25" value="&lt;span style=&quot;color: rgb(0, 0, 0); font-family: Helvetica; font-size: 12px; font-style: normal; font-variant-ligatures: normal; font-variant-caps: normal; font-weight: 400; letter-spacing: normal; orphans: 2; text-indent: 0px; text-transform: none; widows: 2; word-spacing: 0px; -webkit-text-stroke-width: 0px; white-space: normal; background-color: rgb(251, 251, 251); text-decoration-thickness: initial; text-decoration-style: initial; text-decoration-color: initial; float: none; display: inline !important;&quot;&gt;Перевірка введених даних&lt;/span&gt;" style="text;whiteSpace=wrap;html=1;align=center;" parent="1" vertex="1">
          <mxGeometry x="222.25" y="604" width="156" height="30" as="geometry" />
        </mxCell>
        <mxCell id="Z0NSURGrnw13pnlhkE_a-27" value="Підтвердження валідності даних" style="text;whiteSpace=wrap;html=1;align=center;" parent="1" vertex="1">
          <mxGeometry x="237.25" y="644" width="130" height="40" as="geometry" />
        </mxCell>
        <mxCell id="Z0NSURGrnw13pnlhkE_a-28" value="" style="endArrow=classic;html=1;rounded=0;" parent="1" edge="1">
          <mxGeometry width="50" height="50" relative="1" as="geometry">
            <mxPoint x="380.75" y="684" as="sourcePoint" />
            <mxPoint x="220.75" y="684" as="targetPoint" />
          </mxGeometry>
        </mxCell>
        <mxCell id="Z0NSURGrnw13pnlhkE_a-30" value="Введення даних зниклого" style="text;whiteSpace=wrap;html=1;align=center;" parent="1" vertex="1">
          <mxGeometry x="61.75" y="403" width="140" height="30" as="geometry" />
        </mxCell>
        <mxCell id="Z0NSURGrnw13pnlhkE_a-31" value="Введення детального опису зниклого" style="text;whiteSpace=wrap;html=1;align=center;" parent="1" vertex="1">
          <mxGeometry x="59" y="504" width="150" height="30" as="geometry" />
        </mxCell>
        <mxCell id="Z0NSURGrnw13pnlhkE_a-32" value="" style="endArrow=classic;html=1;rounded=0;" parent="1" edge="1">
          <mxGeometry width="50" height="50" relative="1" as="geometry">
            <mxPoint x="49" y="538.29" as="sourcePoint" />
            <mxPoint x="220" y="538.29" as="targetPoint" />
          </mxGeometry>
        </mxCell>
        <mxCell id="Z0NSURGrnw13pnlhkE_a-35" value="" style="endArrow=classic;html=1;rounded=0;" parent="1" edge="1">
          <mxGeometry width="50" height="50" relative="1" as="geometry">
            <mxPoint x="220.75" y="734" as="sourcePoint" />
            <mxPoint x="379.75" y="734" as="targetPoint" />
          </mxGeometry>
        </mxCell>
        <mxCell id="Z0NSURGrnw13pnlhkE_a-36" value="&lt;span style=&quot;color: rgb(0, 0, 0); font-family: Helvetica; font-size: 12px; font-style: normal; font-variant-ligatures: normal; font-variant-caps: normal; font-weight: 400; letter-spacing: normal; orphans: 2; text-indent: 0px; text-transform: none; widows: 2; word-spacing: 0px; -webkit-text-stroke-width: 0px; white-space: normal; background-color: rgb(251, 251, 251); text-decoration-thickness: initial; text-decoration-style: initial; text-decoration-color: initial; float: none; display: inline !important;&quot;&gt;Збереження картки в базі даних&lt;/span&gt;" style="text;whiteSpace=wrap;html=1;align=center;" parent="1" vertex="1">
          <mxGeometry x="222.25" y="694" width="156" height="40" as="geometry" />
        </mxCell>
        <mxCell id="Z0NSURGrnw13pnlhkE_a-37" value="Підтвердження збереження даних" style="text;whiteSpace=wrap;html=1;align=center;" parent="1" vertex="1">
          <mxGeometry x="237.25" y="744" width="130" height="40" as="geometry" />
        </mxCell>
        <mxCell id="Z0NSURGrnw13pnlhkE_a-38" value="" style="endArrow=classic;html=1;rounded=0;" parent="1" edge="1">
          <mxGeometry width="50" height="50" relative="1" as="geometry">
            <mxPoint x="378.25" y="784" as="sourcePoint" />
            <mxPoint x="220" y="784" as="targetPoint" />
          </mxGeometry>
        </mxCell>
        <mxCell id="Z0NSURGrnw13pnlhkE_a-51" value="" style="endArrow=classic;html=1;rounded=0;" parent="1" edge="1">
          <mxGeometry width="50" height="50" relative="1" as="geometry">
            <mxPoint x="50.5" y="594" as="sourcePoint" />
            <mxPoint x="221" y="594" as="targetPoint" />
          </mxGeometry>
        </mxCell>
        <mxCell id="Z0NSURGrnw13pnlhkE_a-52" value="Підтвердження створення заходу" style="text;whiteSpace=wrap;html=1;align=center;" parent="1" vertex="1">
          <mxGeometry x="51" y="554" width="161.5" height="40" as="geometry" />
        </mxCell>
        <mxCell id="Z0NSURGrnw13pnlhkE_a-54" value="" style="endArrow=classic;html=1;rounded=0;" parent="1" edge="1">
          <mxGeometry width="50" height="50" relative="1" as="geometry">
            <mxPoint x="219.25" y="831" as="sourcePoint" />
            <mxPoint x="50" y="831" as="targetPoint" />
          </mxGeometry>
        </mxCell>
        <mxCell id="Z0NSURGrnw13pnlhkE_a-55" value="Підтвердження створення картки зниклого" style="text;whiteSpace=wrap;html=1;align=center;" parent="1" vertex="1">
          <mxGeometry x="56.75" y="791" width="161.5" height="40" as="geometry" />
        </mxCell>
      </root>
    </mxGraphModel>
  </diagram>
</mxfile>
